<?xml version="1.0" encoding="UTF-8" standalone="no"?>
<!DOCTYPE svg PUBLIC "-//W3C//DTD SVG 1.1//EN"
 "http://www.w3.org/Graphics/SVG/1.1/DTD/svg11.dtd">
<!-- Generated by graphviz version 2.42.3 (20191010.1750)
 -->
<!-- Title: %3 Pages: 1 -->
<svg width="925pt" height="77pt"
 viewBox="0.00 0.00 924.56 77.00" xmlns="http://www.w3.org/2000/svg" xmlns:xlink="http://www.w3.org/1999/xlink">
<g id="graph0" class="graph" transform="scale(1 1) rotate(0) translate(4 73)">
<title>%3</title>
<polygon fill="white" stroke="transparent" points="-4,4 -4,-73 920.56,-73 920.56,4 -4,4"/>
<!-- 0 -->
<g id="node1" class="node">
<title>0</title>
<path fill="#e5f5e0" stroke="#a1d99b" d="M42,-69C42,-69 12,-69 12,-69 6,-69 0,-63 0,-57 0,-57 0,-45 0,-45 0,-39 6,-33 12,-33 12,-33 42,-33 42,-33 48,-33 54,-39 54,-45 54,-45 54,-57 54,-57 54,-63 48,-69 42,-69"/>
<text text-anchor="middle" x="27" y="-47.3" font-family="Times,serif" font-size="14.00">start</text>
</g>
<!-- 1 -->
<g id="node2" class="node">
<title>1</title>
<polygon fill="#d9d9d9" stroke="#bdbdbd" points="165,-69 90,-69 90,-33 165,-33 165,-69"/>
<text text-anchor="middle" x="127.5" y="-47.3" font-family="Times,serif" font-size="14.00">forward(3)</text>
</g>
<!-- 0&#45;&gt;1 -->
<g id="edge1" class="edge">
<title>0&#45;&gt;1</title>
<path fill="none" stroke="black" d="M54.2,-51C54.2,-51 79.72,-51 79.72,-51"/>
<polygon fill="black" stroke="black" points="79.72,-54.5 89.72,-51 79.72,-47.5 79.72,-54.5"/>
</g>
<!-- 2 -->
<g id="node3" class="node">
<title>2</title>
<polygon fill="#cab2d6" stroke="#6a3d9a" points="243.28,-69 201.22,-51 243.28,-33 285.34,-51 243.28,-69"/>
<text text-anchor="middle" x="243.28" y="-47.3" font-family="Times,serif" font-size="14.00">x &gt; 3</text>
</g>
<!-- 1&#45;&gt;2 -->
<g id="edge2" class="edge">
<title>1&#45;&gt;2</title>
<path fill="none" stroke="black" d="M165.09,-51C165.09,-51 191.07,-51 191.07,-51"/>
<polygon fill="black" stroke="black" points="191.07,-54.5 201.07,-51 191.07,-47.5 191.07,-54.5"/>
</g>
<!-- 3 -->
<g id="node4" class="node">
<title>3</title>
<polygon fill="#d9d9d9" stroke="#bdbdbd" points="385.56,-69 321.56,-69 321.56,-33 385.56,-33 385.56,-69"/>
<text text-anchor="middle" x="353.56" y="-47.3" font-family="Times,serif" font-size="14.00">left(180)</text>
</g>
<!-- 2&#45;&gt;3 -->
<g id="edge8" class="edge">
<title>2&#45;&gt;3</title>
<path fill="none" stroke="black" d="M285.6,-51C285.6,-51 311.46,-51 311.46,-51"/>
<polygon fill="black" stroke="black" points="311.46,-54.5 321.46,-51 311.46,-47.5 311.46,-54.5"/>
<text text-anchor="middle" x="308.03" y="-39.8" font-family="Times,serif" font-size="14.00">yes</text>
</g>
<!-- 6 -->
<g id="node7" class="node">
<title>6</title>
<polygon fill="#d9d9d9" stroke="#bdbdbd" points="715.56,-69 651.56,-69 651.56,-33 715.56,-33 715.56,-69"/>
<text text-anchor="middle" x="683.56" y="-47.3" font-family="Times,serif" font-size="14.00">left(180)</text>
</g>
<!-- 2&#45;&gt;6 -->
<g id="edge9" class="edge">
<title>2&#45;&gt;6</title>
<path fill="none" stroke="black" d="M243.56,-33C243.56,-24 243.56,-15 243.56,-15 243.56,-15 683.56,-15 683.56,-15 683.56,-15 683.56,-22.58 683.56,-22.58"/>
<polygon fill="black" stroke="black" points="680.06,-22.58 683.56,-32.58 687.06,-22.58 680.06,-22.58"/>
<text text-anchor="middle" x="451.35" y="-3.8" font-family="Times,serif" font-size="14.00">no</text>
</g>
<!-- 4 -->
<g id="node5" class="node">
<title>4</title>
<polygon fill="#d9d9d9" stroke="#bdbdbd" points="515.56,-69 421.56,-69 421.56,-33 515.56,-33 515.56,-69"/>
<text text-anchor="middle" x="468.56" y="-47.3" font-family="Times,serif" font-size="14.00">forward(x &#45; 3)</text>
</g>
<!-- 3&#45;&gt;4 -->
<g id="edge3" class="edge">
<title>3&#45;&gt;4</title>
<path fill="none" stroke="black" d="M385.6,-51C385.6,-51 411.22,-51 411.22,-51"/>
<polygon fill="black" stroke="black" points="411.22,-54.5 421.22,-51 411.22,-47.5 411.22,-54.5"/>
</g>
<!-- 5 -->
<g id="node6" class="node">
<title>5</title>
<polygon fill="#d9d9d9" stroke="#bdbdbd" points="615.56,-69 551.56,-69 551.56,-33 615.56,-33 615.56,-69"/>
<text text-anchor="middle" x="583.56" y="-47.3" font-family="Times,serif" font-size="14.00">left(180)</text>
</g>
<!-- 4&#45;&gt;5 -->
<g id="edge4" class="edge">
<title>4&#45;&gt;5</title>
<path fill="none" stroke="black" d="M515.67,-51C515.67,-51 541.45,-51 541.45,-51"/>
<polygon fill="black" stroke="black" points="541.45,-54.5 551.45,-51 541.45,-47.5 541.45,-54.5"/>
</g>
<!-- 5&#45;&gt;6 -->
<g id="edge5" class="edge">
<title>5&#45;&gt;6</title>
<path fill="none" stroke="black" d="M615.75,-51C615.75,-51 641.43,-51 641.43,-51"/>
<polygon fill="black" stroke="black" points="641.43,-54.5 651.43,-51 641.43,-47.5 641.43,-54.5"/>
</g>
<!-- 7 -->
<g id="node8" class="node">
<title>7</title>
<polygon fill="#d9d9d9" stroke="#bdbdbd" points="826.56,-69 751.56,-69 751.56,-33 826.56,-33 826.56,-69"/>
<text text-anchor="middle" x="789.06" y="-47.3" font-family="Times,serif" font-size="14.00">forward(1)</text>
</g>
<!-- 6&#45;&gt;7 -->
<g id="edge6" class="edge">
<title>6&#45;&gt;7</title>
<path fill="none" stroke="black" d="M715.79,-51C715.79,-51 741.48,-51 741.48,-51"/>
<polygon fill="black" stroke="black" points="741.48,-54.5 751.48,-51 741.48,-47.5 741.48,-54.5"/>
</g>
<!-- 8 -->
<g id="node9" class="node">
<title>8</title>
<path fill="#e5f5e0" stroke="#a1d99b" d="M904.56,-69C904.56,-69 874.56,-69 874.56,-69 868.56,-69 862.56,-63 862.56,-57 862.56,-57 862.56,-45 862.56,-45 862.56,-39 868.56,-33 874.56,-33 874.56,-33 904.56,-33 904.56,-33 910.56,-33 916.56,-39 916.56,-45 916.56,-45 916.56,-57 916.56,-57 916.56,-63 910.56,-69 904.56,-69"/>
<text text-anchor="middle" x="889.56" y="-47.3" font-family="Times,serif" font-size="14.00">end</text>
</g>
<!-- 7&#45;&gt;8 -->
<g id="edge7" class="edge">
<title>7&#45;&gt;8</title>
<path fill="none" stroke="black" d="M826.77,-51C826.77,-51 852.31,-51 852.31,-51"/>
<polygon fill="black" stroke="black" points="852.31,-54.5 862.31,-51 852.31,-47.5 852.31,-54.5"/>
</g>
</g>
</svg>
